<?xml version="1.0" encoding="utf-8"?>
<!-- Generator: Adobe Illustrator 27.3.1, SVG Export Plug-In . SVG Version: 6.00 Build 0)  -->
<svg version="1.1" id="Calque_1" xmlns="http://www.w3.org/2000/svg" xmlns:xlink="http://www.w3.org/1999/xlink" x="0px" y="0px"
	 viewBox="0 0 776 448.4" style="enable-background:new 0 0 776 448.4;" xml:space="preserve">
<style type="text/css">
	
		.st0{clip-path:url(#SVGID_00000003796093298035228630000015438399952808810922_);fill-rule:evenodd;clip-rule:evenodd;fill:#DEEBF7;}
	
		.st1{clip-path:url(#SVGID_00000017484186877345877920000002258615409212639388_);fill-rule:evenodd;clip-rule:evenodd;fill:#BDD7EE;}
	
		.st2{clip-path:url(#SVGID_00000028303888600207355860000011800315220821643670_);fill-rule:evenodd;clip-rule:evenodd;fill:#CCECFF;}
	
		.st3{clip-path:url(#SVGID_00000054234579801739683590000003702128244418633150_);fill-rule:evenodd;clip-rule:evenodd;fill:#9DC3E6;}
	
		.st4{clip-path:url(#SVGID_00000000938176858719876100000013517318513439405452_);fill-rule:evenodd;clip-rule:evenodd;fill:#99CCFF;}
	
		.st5{clip-path:url(#SVGID_00000116222638347266614330000003767798866817648025_);fill-rule:evenodd;clip-rule:evenodd;fill:#2E75B6;}
	
		.st6{clip-path:url(#SVGID_00000117642650331535899840000010185025398987290278_);fill-rule:evenodd;clip-rule:evenodd;fill:#1F4E79;}
	
		.st7{clip-path:url(#SVGID_00000114789074631000944320000009736622802002919056_);fill:none;stroke:#D9D9D9;stroke-width:1.2603;stroke-linejoin:round;stroke-miterlimit:10;}
	.st8{clip-path:url(#SVGID_00000003074022117677642670000004037881539506781627_);}
	.st9{clip-path:url(#SVGID_00000123429903681340130210000012812181000268919740_);}
	.st10{fill:#002060;}
	.st11{clip-path:url(#SVGID_00000100360932390608586390000004728580416275792771_);}
	.st12{clip-path:url(#SVGID_00000077296957653974011780000016495602802888193979_);}
	.st13{clip-path:url(#SVGID_00000150796406766130076260000003246843090292903580_);}
	.st14{clip-path:url(#SVGID_00000139278585391333645320000013572862651875564168_);}
	.st15{clip-path:url(#SVGID_00000163074047197320712990000008311781987146080415_);}
	.st16{clip-path:url(#SVGID_00000150822941582162132390000010968098249107974323_);}
	.st17{clip-path:url(#SVGID_00000137131613509967787850000011924889842748051617_);}
	.st18{clip-path:url(#SVGID_00000142855136687900811020000012440398315734514322_);}
	.st19{clip-path:url(#SVGID_00000159471126081994944780000003619341087994193827_);}
	.st20{clip-path:url(#SVGID_00000036947054857063670300000008739674065885375877_);}
	.st21{clip-path:url(#SVGID_00000083769881439042782550000006045635957468398525_);}
	.st22{clip-path:url(#SVGID_00000132802737464853897690000000847891700272628152_);}
	.st23{clip-path:url(#SVGID_00000178920928006937742490000003694512263368600742_);}
	.st24{clip-path:url(#SVGID_00000008132756347134420090000008262112986532078252_);}
	.st25{fill:#595959;}
	.st26{clip-path:url(#SVGID_00000125561961987332413010000001824676490904204731_);}
	.st27{clip-path:url(#SVGID_00000075162047213595937490000007031101438797371013_);}
	.st28{clip-path:url(#SVGID_00000096055922360032039560000000836557377254696892_);}
	.st29{clip-path:url(#SVGID_00000031180520390819516460000011687963311477307779_);}
	.st30{clip-path:url(#SVGID_00000118368044141531233460000001426827372440359840_);}
	.st31{clip-path:url(#SVGID_00000124139889509424951450000002712242775507254163_);}
	.st32{clip-path:url(#SVGID_00000050637763579841013840000015175411112380067238_);}
	.st33{clip-path:url(#SVGID_00000046322458610082069020000010979396424568809876_);}
	.st34{clip-path:url(#SVGID_00000083051950473078716650000001375508010166810507_);}
	.st35{clip-path:url(#SVGID_00000127008981346175864760000007385600474768895616_);}
	.st36{clip-path:url(#SVGID_00000176740109221283155400000015542738464916450189_);}
	.st37{clip-path:url(#SVGID_00000078749480991193720760000014069385770859096996_);}
</style>
<g>
	<g>
		<defs>
			<polygon id="SVGID_1_" points="6.5,410.8 774.5,410.8 774.5,-49.7 6.5,-49.7 6.5,410.8 			"/>
		</defs>
		<clipPath id="SVGID_00000127018847689535480470000016049521883693192329_">
			<use xlink:href="#SVGID_1_"  style="overflow:visible;"/>
		</clipPath>
		
			<polygon style="clip-path:url(#SVGID_00000127018847689535480470000016049521883693192329_);fill-rule:evenodd;clip-rule:evenodd;fill:#DEEBF7;" points="
			29.6,191.9 93.1,191.9 93.1,409.5 29.6,409.5 29.6,191.9 		"/>
	</g>
	<g>
		<defs>
			<polygon id="SVGID_00000037680261215155175390000016670093274312728764_" points="6.5,410.8 774.5,410.8 774.5,-49.7 6.5,-49.7 
				6.5,410.8 			"/>
		</defs>
		<clipPath id="SVGID_00000158006844516263402160000010025922437980229813_">
			<use xlink:href="#SVGID_00000037680261215155175390000016670093274312728764_"  style="overflow:visible;"/>
		</clipPath>
		
			<polygon style="clip-path:url(#SVGID_00000158006844516263402160000010025922437980229813_);fill-rule:evenodd;clip-rule:evenodd;fill:#BDD7EE;" points="
			139.3,168.8 202.5,168.8 202.5,409.5 139.3,409.5 139.3,168.8 		"/>
	</g>
	<g>
		<defs>
			<polygon id="SVGID_00000178916863813122035050000012328703696708870029_" points="6.5,410.8 774.5,410.8 774.5,-49.7 6.5,-49.7 
				6.5,410.8 			"/>
		</defs>
		<clipPath id="SVGID_00000078755903234036889210000009456724760417414788_">
			<use xlink:href="#SVGID_00000178916863813122035050000012328703696708870029_"  style="overflow:visible;"/>
		</clipPath>
		
			<polygon style="clip-path:url(#SVGID_00000078755903234036889210000009456724760417414788_);fill-rule:evenodd;clip-rule:evenodd;fill:#CCECFF;" points="
			248.7,137.5 312.2,137.5 312.2,409.5 248.7,409.5 248.7,137.5 		"/>
	</g>
	<g>
		<defs>
			<polygon id="SVGID_00000048487777004170687980000000105446708699780780_" points="6.5,410.8 774.5,410.8 774.5,-49.7 6.5,-49.7 
				6.5,410.8 			"/>
		</defs>
		<clipPath id="SVGID_00000124853362163723419030000017939889832159899798_">
			<use xlink:href="#SVGID_00000048487777004170687980000000105446708699780780_"  style="overflow:visible;"/>
		</clipPath>
		
			<polygon style="clip-path:url(#SVGID_00000124853362163723419030000017939889832159899798_);fill-rule:evenodd;clip-rule:evenodd;fill:#9DC3E6;" points="
			358.4,134.1 421.6,134.1 421.6,409.5 358.4,409.5 358.4,134.1 		"/>
	</g>
	<g>
		<defs>
			<polygon id="SVGID_00000042012782821198603040000004913912185402105003_" points="6.5,410.8 774.5,410.8 774.5,-49.7 6.5,-49.7 
				6.5,410.8 			"/>
		</defs>
		<clipPath id="SVGID_00000010296080769679723170000013027529204671011481_">
			<use xlink:href="#SVGID_00000042012782821198603040000004913912185402105003_"  style="overflow:visible;"/>
		</clipPath>
		
			<polygon style="clip-path:url(#SVGID_00000010296080769679723170000013027529204671011481_);fill-rule:evenodd;clip-rule:evenodd;fill:#99CCFF;" points="
			467.8,92.1 531,92.1 531,409.5 467.8,409.5 467.8,92.1 		"/>
	</g>
	<g>
		<defs>
			<polygon id="SVGID_00000150068032090864010080000007508889572800943767_" points="6.5,410.8 774.5,410.8 774.5,-49.7 6.5,-49.7 
				6.5,410.8 			"/>
		</defs>
		<clipPath id="SVGID_00000154428428251688963130000009070296499019233979_">
			<use xlink:href="#SVGID_00000150068032090864010080000007508889572800943767_"  style="overflow:visible;"/>
		</clipPath>
		
			<polygon style="clip-path:url(#SVGID_00000154428428251688963130000009070296499019233979_);fill-rule:evenodd;clip-rule:evenodd;fill:#2E75B6;" points="
			577.3,44.2 640.7,44.2 640.7,409.5 577.3,409.5 577.3,44.2 		"/>
	</g>
	<g>
		<defs>
			<polygon id="SVGID_00000126308303432110115010000015155511052453671830_" points="6.5,410.8 774.5,410.8 774.5,-49.7 6.5,-49.7 
				6.5,410.8 			"/>
		</defs>
		<clipPath id="SVGID_00000064316637291198836340000001948544344776308889_">
			<use xlink:href="#SVGID_00000126308303432110115010000015155511052453671830_"  style="overflow:visible;"/>
		</clipPath>
		
			<polygon style="clip-path:url(#SVGID_00000064316637291198836340000001948544344776308889_);fill-rule:evenodd;clip-rule:evenodd;fill:#1F4E79;" points="
			686.9,31.8 750.1,31.8 750.1,409.5 686.9,409.5 686.9,31.8 		"/>
	</g>
	<g>
		<defs>
			<polygon id="SVGID_00000112610084452194479370000013787940725262689670_" points="-12.6,452.4 792.4,452.4 792.4,-68.8 
				-12.6,-68.8 -12.6,452.4 			"/>
		</defs>
		<clipPath id="SVGID_00000077305903373628598790000004356208927024834692_">
			<use xlink:href="#SVGID_00000112610084452194479370000013787940725262689670_"  style="overflow:visible;"/>
		</clipPath>
		
			<line style="clip-path:url(#SVGID_00000077305903373628598790000004356208927024834692_);fill:none;stroke:#D9D9D9;stroke-width:1.2603;stroke-linejoin:round;stroke-miterlimit:10;" x1="6.5" y1="409.5" x2="773.2" y2="409.5"/>
	</g>
	<g>
		<defs>
			<polygon id="SVGID_00000047042214424221901200000008638087863049668740_" points="-12.6,452.4 792.4,452.4 792.4,-68.8 
				-12.6,-68.8 -12.6,452.4 			"/>
		</defs>
		<clipPath id="SVGID_00000080924000033694893470000010944780262636092821_">
			<use xlink:href="#SVGID_00000047042214424221901200000008638087863049668740_"  style="overflow:visible;"/>
		</clipPath>
		<g style="clip-path:url(#SVGID_00000080924000033694893470000010944780262636092821_);">
			<defs>
				<rect id="SVGID_00000021102422479945497420000002403050284897335694_" x="-12.6" y="-68.8" width="804.9" height="521.2"/>
			</defs>
			<clipPath id="SVGID_00000085211416034536673120000017793700440762740869_">
				<use xlink:href="#SVGID_00000021102422479945497420000002403050284897335694_"  style="overflow:visible;"/>
			</clipPath>
			<g style="clip-path:url(#SVGID_00000085211416034536673120000017793700440762740869_);">
				<path class="st10" d="M44.1,176.5l2.5-0.3c0.1,0.6,0.3,1.1,0.6,1.4c0.3,0.3,0.8,0.5,1.2,0.5c0.5,0,1-0.2,1.3-0.6
					s0.5-0.9,0.5-1.6c0-0.6-0.2-1.1-0.5-1.5c-0.3-0.4-0.8-0.6-1.3-0.6c-0.3,0-0.7,0.1-1.2,0.2l0.3-2.1c0.7,0,1.2-0.1,1.6-0.4
					c0.4-0.3,0.5-0.7,0.5-1.3c0-0.4-0.1-0.8-0.4-1.1c-0.3-0.3-0.6-0.4-1.1-0.4c-0.4,0-0.8,0.2-1.1,0.5c-0.3,0.3-0.5,0.7-0.6,1.3
					l-2.3-0.4c0.2-0.8,0.4-1.4,0.7-1.9c0.3-0.5,0.8-0.9,1.4-1.1c0.6-0.3,1.2-0.4,2-0.4c1.2,0,2.2,0.4,3,1.2c0.6,0.6,0.9,1.4,0.9,2.2
					c0,1.2-0.6,2.1-1.9,2.8c0.8,0.2,1.4,0.5,1.8,1.1c0.5,0.6,0.7,1.2,0.7,2c0,1.2-0.4,2.2-1.3,3c-0.8,0.8-1.9,1.2-3.2,1.2
					c-1.2,0-2.2-0.3-3-1S44.3,177.6,44.1,176.5z"/>
				<path class="st10" d="M54.4,176.5l2.5-0.3c0.1,0.6,0.3,1.1,0.6,1.4c0.3,0.3,0.8,0.5,1.2,0.5c0.5,0,1-0.2,1.3-0.6
					s0.5-0.9,0.5-1.6c0-0.6-0.2-1.1-0.5-1.5c-0.3-0.4-0.8-0.6-1.3-0.6c-0.3,0-0.7,0.1-1.2,0.2L58,172c0.7,0,1.2-0.1,1.6-0.4
					c0.4-0.3,0.5-0.7,0.5-1.3c0-0.4-0.1-0.8-0.4-1.1c-0.3-0.3-0.6-0.4-1.1-0.4c-0.4,0-0.8,0.2-1.1,0.5c-0.3,0.3-0.5,0.7-0.6,1.3
					l-2.3-0.4c0.2-0.8,0.4-1.4,0.7-1.9c0.3-0.5,0.8-0.9,1.4-1.1c0.6-0.3,1.2-0.4,2-0.4c1.2,0,2.2,0.4,3,1.2c0.6,0.6,0.9,1.4,0.9,2.2
					c0,1.2-0.6,2.1-1.9,2.8c0.8,0.2,1.4,0.5,1.8,1.1c0.5,0.6,0.7,1.2,0.7,2c0,1.2-0.4,2.2-1.3,3c-0.8,0.8-1.9,1.2-3.2,1.2
					c-1.2,0-2.2-0.3-3-1S54.5,177.6,54.4,176.5z"/>
				<path class="st10" d="M65.3,177.5h2.5v1.8c0,0.7-0.1,1.3-0.2,1.7c-0.1,0.4-0.4,0.8-0.7,1.1c-0.4,0.3-0.8,0.6-1.3,0.8l-0.5-1
					c0.5-0.2,0.9-0.4,1.1-0.7c0.2-0.3,0.3-0.7,0.3-1.2h-1.2V177.5z"/>
				<path class="st10" d="M78.4,177.7v2.4h-8.9c0.1-0.9,0.4-1.7,0.9-2.5s1.4-1.9,2.9-3.2c1.1-1.1,1.8-1.8,2.1-2.2
					c0.3-0.5,0.5-1,0.5-1.6c0-0.6-0.2-1-0.5-1.3c-0.3-0.3-0.7-0.5-1.3-0.5c-0.5,0-1,0.2-1.3,0.5c-0.3,0.3-0.5,0.8-0.5,1.6l-2.5-0.3
					c0.2-1.4,0.6-2.4,1.4-3s1.8-0.9,3-0.9c1.3,0,2.3,0.4,3.1,1.1s1.1,1.6,1.1,2.6c0,0.6-0.1,1.2-0.3,1.7c-0.2,0.5-0.6,1.1-1,1.7
					c-0.3,0.4-0.9,1-1.7,1.7c-0.8,0.7-1.3,1.2-1.5,1.5c-0.2,0.2-0.4,0.5-0.5,0.7H78.4z"/>
			</g>
		</g>
	</g>
	<g>
		<defs>
			<polygon id="SVGID_00000155145324084523822130000002603005820420017336_" points="-12.6,452.4 792.4,452.4 792.4,-68.8 
				-12.6,-68.8 -12.6,452.4 			"/>
		</defs>
		<clipPath id="SVGID_00000086680198639564892160000003293284424670568872_">
			<use xlink:href="#SVGID_00000155145324084523822130000002603005820420017336_"  style="overflow:visible;"/>
		</clipPath>
		<g style="clip-path:url(#SVGID_00000086680198639564892160000003293284424670568872_);">
			<defs>
				<rect id="SVGID_00000053504749084577542350000013887244404929398151_" x="-12.6" y="-68.8" width="804.9" height="521.2"/>
			</defs>
			<clipPath id="SVGID_00000044897070159661000240000013391962271796172674_">
				<use xlink:href="#SVGID_00000053504749084577542350000013887244404929398151_"  style="overflow:visible;"/>
			</clipPath>
			<g style="clip-path:url(#SVGID_00000044897070159661000240000013391962271796172674_);">
				<path class="st10" d="M153.7,153.6l2.5-0.3c0.1,0.6,0.3,1.1,0.6,1.4c0.3,0.3,0.8,0.5,1.2,0.5c0.5,0,1-0.2,1.3-0.6
					s0.5-0.9,0.5-1.6c0-0.6-0.2-1.1-0.5-1.5c-0.3-0.4-0.8-0.6-1.3-0.6c-0.3,0-0.7,0.1-1.2,0.2l0.3-2.1c0.7,0,1.2-0.1,1.6-0.4
					c0.4-0.3,0.5-0.7,0.5-1.3c0-0.4-0.1-0.8-0.4-1.1c-0.3-0.3-0.6-0.4-1.1-0.4c-0.4,0-0.8,0.2-1.1,0.5c-0.3,0.3-0.5,0.7-0.6,1.3
					l-2.3-0.4c0.2-0.8,0.4-1.4,0.7-1.9c0.3-0.5,0.8-0.9,1.4-1.1c0.6-0.3,1.2-0.4,2-0.4c1.2,0,2.2,0.4,3,1.2c0.6,0.6,0.9,1.4,0.9,2.2
					c0,1.2-0.6,2.1-1.9,2.8c0.8,0.2,1.4,0.5,1.8,1.1c0.5,0.6,0.7,1.2,0.7,2c0,1.2-0.4,2.2-1.3,3c-0.8,0.8-1.9,1.2-3.2,1.2
					c-1.2,0-2.2-0.3-3-1S153.8,154.7,153.7,153.6z"/>
				<path class="st10" d="M172.6,147.1l-2.5,0.3c-0.1-0.5-0.2-0.9-0.5-1.1c-0.3-0.2-0.6-0.4-1-0.4c-0.5,0-1,0.2-1.4,0.7
					s-0.6,1.5-0.7,3c0.6-0.7,1.4-1.1,2.4-1.1c1.1,0,2,0.4,2.7,1.2c0.8,0.8,1.1,1.8,1.1,3.1c0,1.4-0.4,2.4-1.2,3.3s-1.8,1.2-3.1,1.2
					c-1.3,0-2.4-0.5-3.3-1.6c-0.9-1-1.3-2.7-1.3-5.1c0-2.4,0.4-4.2,1.3-5.2c0.9-1.1,2.1-1.6,3.5-1.6c1,0,1.8,0.3,2.5,0.8
					C172,145.2,172.5,146,172.6,147.1z M166.9,152.6c0,0.8,0.2,1.5,0.6,1.9c0.4,0.4,0.8,0.7,1.3,0.7c0.5,0,0.9-0.2,1.2-0.6
					c0.3-0.4,0.5-1,0.5-1.8c0-0.9-0.2-1.5-0.5-1.9c-0.3-0.4-0.8-0.6-1.3-0.6c-0.5,0-0.9,0.2-1.2,0.6
					C167.1,151.3,166.9,151.9,166.9,152.6z"/>
				<path class="st10" d="M174.8,154.6h2.5v1.8c0,0.7-0.1,1.3-0.2,1.7c-0.1,0.4-0.4,0.8-0.7,1.1c-0.4,0.3-0.8,0.6-1.3,0.8l-0.5-1
					c0.5-0.2,0.9-0.4,1.1-0.7c0.2-0.3,0.3-0.7,0.3-1.2h-1.2V154.6z"/>
				<path class="st10" d="M179.4,146.4V144h8.7v1.8c-0.7,0.7-1.4,1.7-2.2,3c-0.7,1.3-1.3,2.7-1.7,4.2c-0.4,1.5-0.6,2.8-0.6,4h-2.4
					c0-1.8,0.4-3.7,1.1-5.6c0.7-1.9,1.7-3.6,2.9-5.1H179.4z"/>
			</g>
		</g>
	</g>
	<g>
		<defs>
			<polygon id="SVGID_00000077300440316553617620000011122512822503005324_" points="-12.6,452.4 792.4,452.4 792.4,-68.8 
				-12.6,-68.8 -12.6,452.4 			"/>
		</defs>
		<clipPath id="SVGID_00000103985319213989281150000010766951548670675639_">
			<use xlink:href="#SVGID_00000077300440316553617620000011122512822503005324_"  style="overflow:visible;"/>
		</clipPath>
		<g style="clip-path:url(#SVGID_00000103985319213989281150000010766951548670675639_);">
			<defs>
				<rect id="SVGID_00000080921195352159832660000017221887202755365001_" x="-12.6" y="-68.8" width="804.9" height="521.2"/>
			</defs>
			<clipPath id="SVGID_00000075850510795216128360000011732377779914552467_">
				<use xlink:href="#SVGID_00000080921195352159832660000017221887202755365001_"  style="overflow:visible;"/>
			</clipPath>
			<g style="clip-path:url(#SVGID_00000075850510795216128360000011732377779914552467_);">
				<path class="st10" d="M268.3,125.6V123h-5.4v-2.2l5.7-8.4h2.1v8.4h1.6v2.2h-1.6v2.7H268.3z M268.3,120.7v-4.5l-3,4.5H268.3z"/>
				<path class="st10" d="M280.1,125.6h-2.5v-9.6c-0.9,0.9-2,1.5-3.3,1.9v-2.3c0.7-0.2,1.4-0.6,2.2-1.2c0.8-0.6,1.3-1.3,1.6-2.1h2.1
					V125.6z"/>
				<path class="st10" d="M284.3,123.1h2.5v1.8c0,0.7-0.1,1.3-0.2,1.7c-0.1,0.4-0.4,0.8-0.7,1.1c-0.4,0.3-0.8,0.6-1.3,0.8l-0.5-1
					c0.5-0.2,0.9-0.4,1.1-0.7c0.2-0.3,0.3-0.7,0.3-1.2h-1.2V123.1z"/>
				<path class="st10" d="M288.9,122.2l2.5-0.3c0.1,0.6,0.3,1,0.6,1.4s0.8,0.5,1.2,0.5c0.5,0,1-0.2,1.3-0.6c0.4-0.4,0.6-1.1,0.6-1.9
					c0-0.8-0.2-1.4-0.5-1.8c-0.4-0.4-0.8-0.6-1.4-0.6c-0.7,0-1.4,0.3-2,1l-2.1-0.3l1.3-6.9h6.7v2.4h-4.8l-0.4,2.2
					c0.6-0.3,1.1-0.4,1.7-0.4c1.1,0,2.1,0.4,2.9,1.2s1.2,1.9,1.2,3.2c0,1.1-0.3,2.1-0.9,2.9c-0.9,1.2-2.1,1.8-3.6,1.8
					c-1.2,0-2.2-0.3-3-1C289.5,124.2,289.1,123.3,288.9,122.2z"/>
			</g>
		</g>
	</g>
	<g>
		<defs>
			<polygon id="SVGID_00000060726784406356112700000010832745825588234633_" points="-12.6,452.4 792.4,452.4 792.4,-68.8 
				-12.6,-68.8 -12.6,452.4 			"/>
		</defs>
		<clipPath id="SVGID_00000016046784893694246620000004369715833818250123_">
			<use xlink:href="#SVGID_00000060726784406356112700000010832745825588234633_"  style="overflow:visible;"/>
		</clipPath>
		<g style="clip-path:url(#SVGID_00000016046784893694246620000004369715833818250123_);">
			<defs>
				<rect id="SVGID_00000164508226742108129580000010315124082017683361_" x="-12.6" y="-68.8" width="804.9" height="521.2"/>
			</defs>
			<clipPath id="SVGID_00000102505930596813094040000000249592575742588847_">
				<use xlink:href="#SVGID_00000164508226742108129580000010315124082017683361_"  style="overflow:visible;"/>
			</clipPath>
			<g style="clip-path:url(#SVGID_00000102505930596813094040000000249592575742588847_);">
				<path class="st10" d="M377.8,122.3v-2.7h-5.4v-2.2l5.7-8.4h2.1v8.4h1.6v2.2h-1.6v2.7H377.8z M377.8,117.5v-4.5l-3,4.5H377.8z"/>
				<path class="st10" d="M391.7,120v2.4h-8.9c0.1-0.9,0.4-1.7,0.9-2.5s1.4-1.9,2.9-3.2c1.1-1.1,1.8-1.8,2.1-2.2
					c0.3-0.5,0.5-1,0.5-1.6c0-0.6-0.2-1-0.5-1.3c-0.3-0.3-0.7-0.5-1.3-0.5c-0.5,0-1,0.2-1.3,0.5c-0.3,0.3-0.5,0.8-0.5,1.6l-2.5-0.3
					c0.2-1.4,0.6-2.4,1.4-3s1.8-0.9,3-0.9c1.3,0,2.3,0.4,3.1,1.1s1.1,1.6,1.1,2.6c0,0.6-0.1,1.2-0.3,1.7c-0.2,0.5-0.6,1.1-1,1.7
					c-0.3,0.4-0.9,1-1.7,1.7c-0.8,0.7-1.3,1.2-1.5,1.5c-0.2,0.2-0.4,0.5-0.5,0.7H391.7z"/>
				<path class="st10" d="M393.9,119.8h2.5v1.8c0,0.7-0.1,1.3-0.2,1.7c-0.1,0.4-0.4,0.8-0.7,1.1c-0.4,0.3-0.8,0.6-1.3,0.8l-0.5-1
					c0.5-0.2,0.9-0.4,1.1-0.7s0.3-0.7,0.3-1.2h-1.2V119.8z"/>
				<path class="st10" d="M402.7,109.1c1.3,0,2.3,0.5,3,1.4c0.9,1.1,1.3,2.9,1.3,5.4c0,2.5-0.4,4.3-1.3,5.4c-0.7,0.9-1.7,1.4-3,1.4
					c-1.3,0-2.3-0.5-3.1-1.5c-0.8-1-1.2-2.8-1.2-5.3c0-2.5,0.4-4.3,1.3-5.4C400.4,109.5,401.4,109.1,402.7,109.1z M402.7,111.2
					c-0.3,0-0.6,0.1-0.8,0.3c-0.2,0.2-0.4,0.5-0.6,1.1c-0.2,0.7-0.3,1.8-0.3,3.3c0,1.6,0.1,2.6,0.2,3.2c0.2,0.6,0.4,1,0.6,1.2
					c0.2,0.2,0.5,0.3,0.8,0.3c0.3,0,0.6-0.1,0.8-0.3c0.2-0.2,0.4-0.5,0.6-1.1c0.2-0.6,0.3-1.8,0.3-3.3c0-1.6-0.1-2.6-0.2-3.2
					c-0.2-0.6-0.4-1-0.6-1.2C403.3,111.3,403,111.2,402.7,111.2z"/>
			</g>
		</g>
	</g>
	<g>
		<defs>
			<polygon id="SVGID_00000025426289754432386370000015207672538555032756_" points="-12.6,452.4 792.4,452.4 792.4,-68.8 
				-12.6,-68.8 -12.6,452.4 			"/>
		</defs>
		<clipPath id="SVGID_00000179609992338743770670000009238424639617123496_">
			<use xlink:href="#SVGID_00000025426289754432386370000015207672538555032756_"  style="overflow:visible;"/>
		</clipPath>
		<g style="clip-path:url(#SVGID_00000179609992338743770670000009238424639617123496_);">
			<defs>
				<rect id="SVGID_00000157987789549066323920000011646353867876628904_" x="-12.6" y="-68.8" width="804.9" height="521.2"/>
			</defs>
			<clipPath id="SVGID_00000009588280750234493120000014490722722326874506_">
				<use xlink:href="#SVGID_00000157987789549066323920000011646353867876628904_"  style="overflow:visible;"/>
			</clipPath>
			<g style="clip-path:url(#SVGID_00000009588280750234493120000014490722722326874506_);">
				<path class="st10" d="M487.3,80.4v-2.7h-5.4v-2.2l5.7-8.4h2.1v8.4h1.6v2.2h-1.6v2.7H487.3z M487.3,75.5V71l-3,4.5H487.3z"/>
				<path class="st10" d="M494.8,73.3c-0.7-0.3-1.1-0.7-1.4-1.1s-0.4-1-0.4-1.6c0-1,0.3-1.8,1-2.4c0.7-0.6,1.7-1,2.9-1
					c1.3,0,2.2,0.3,2.9,1s1,1.5,1,2.4c0,0.6-0.2,1.2-0.5,1.6c-0.3,0.5-0.8,0.8-1.3,1.1c0.7,0.3,1.3,0.7,1.7,1.3s0.6,1.2,0.6,2
					c0,1.2-0.4,2.2-1.2,3s-1.8,1.1-3.1,1.1c-1.2,0-2.2-0.3-3-0.9c-0.9-0.7-1.4-1.8-1.4-3.1c0-0.7,0.2-1.4,0.5-2
					C493.5,74,494,73.6,494.8,73.3z M495.1,76.4c0,0.7,0.2,1.2,0.5,1.6c0.4,0.4,0.8,0.6,1.3,0.6c0.5,0,1-0.2,1.3-0.6
					c0.3-0.4,0.5-0.9,0.5-1.6c0-0.6-0.2-1.1-0.5-1.5c-0.3-0.4-0.8-0.6-1.3-0.6c-0.6,0-1.1,0.2-1.4,0.6S495.1,75.9,495.1,76.4z
					 M495.3,70.7c0,0.5,0.1,0.9,0.4,1.2c0.3,0.3,0.7,0.4,1.1,0.4c0.5,0,0.9-0.1,1.2-0.4c0.3-0.3,0.4-0.7,0.4-1.2
					c0-0.5-0.1-0.9-0.4-1.1c-0.3-0.3-0.7-0.4-1.1-0.4c-0.5,0-0.9,0.1-1.2,0.4C495.5,69.8,495.3,70.2,495.3,70.7z"/>
				<path class="st10" d="M503.4,77.9h2.5v1.8c0,0.7-0.1,1.3-0.2,1.7c-0.1,0.4-0.4,0.8-0.7,1.1c-0.4,0.3-0.8,0.6-1.3,0.8l-0.5-1
					c0.5-0.2,0.9-0.4,1.1-0.7s0.3-0.7,0.3-1.2h-1.2V77.9z"/>
				<path class="st10" d="M512.9,80.4v-2.7h-5.4v-2.2l5.7-8.4h2.1v8.4h1.6v2.2h-1.6v2.7H512.9z M512.9,75.5V71l-3,4.5H512.9z"/>
			</g>
		</g>
	</g>
	<g>
		<defs>
			<polygon id="SVGID_00000164503760947956556580000011191958401705386138_" points="-12.6,452.4 792.4,452.4 792.4,-68.8 
				-12.6,-68.8 -12.6,452.4 			"/>
		</defs>
		<clipPath id="SVGID_00000088841140244457562780000001497514945106092165_">
			<use xlink:href="#SVGID_00000164503760947956556580000011191958401705386138_"  style="overflow:visible;"/>
		</clipPath>
		<g style="clip-path:url(#SVGID_00000088841140244457562780000001497514945106092165_);">
			<defs>
				<rect id="SVGID_00000109018815302895996850000010278392674341552565_" x="-12.6" y="-68.8" width="804.9" height="521.2"/>
			</defs>
			<clipPath id="SVGID_00000042012688680700233820000016417802391600279169_">
				<use xlink:href="#SVGID_00000109018815302895996850000010278392674341552565_"  style="overflow:visible;"/>
			</clipPath>
			<g style="clip-path:url(#SVGID_00000042012688680700233820000016417802391600279169_);">
				<path class="st10" d="M591.9,29.1l2.5-0.3c0.1,0.6,0.3,1,0.6,1.4c0.4,0.3,0.8,0.5,1.2,0.5c0.5,0,1-0.2,1.3-0.6
					c0.4-0.4,0.6-1.1,0.6-1.9c0-0.8-0.2-1.4-0.5-1.8c-0.4-0.4-0.8-0.6-1.4-0.6c-0.7,0-1.4,0.3-2,1l-2.1-0.3l1.3-6.9h6.7v2.4h-4.8
					l-0.4,2.2c0.6-0.3,1.1-0.4,1.7-0.4c1.1,0,2.1,0.4,2.9,1.2s1.2,1.9,1.2,3.2c0,1.1-0.3,2.1-0.9,2.9c-0.9,1.2-2.1,1.8-3.6,1.8
					c-1.2,0-2.2-0.3-3-1C592.5,31.1,592,30.2,591.9,29.1z"/>
				<path class="st10" d="M602.2,29.1l2.5-0.3c0.1,0.6,0.3,1,0.6,1.4c0.4,0.3,0.8,0.5,1.2,0.5c0.5,0,1-0.2,1.3-0.6
					c0.4-0.4,0.6-1.1,0.6-1.9c0-0.8-0.2-1.4-0.5-1.8c-0.4-0.4-0.8-0.6-1.4-0.6c-0.7,0-1.4,0.3-2,1l-2.1-0.3l1.3-6.9h6.7v2.4h-4.8
					l-0.4,2.2c0.6-0.3,1.1-0.4,1.7-0.4c1.1,0,2.1,0.4,2.9,1.2s1.2,1.9,1.2,3.2c0,1.1-0.3,2.1-0.9,2.9c-0.9,1.2-2.1,1.8-3.6,1.8
					c-1.2,0-2.2-0.3-3-1C602.8,31.1,602.3,30.2,602.2,29.1z"/>
				<path class="st10" d="M612.9,30h2.5v1.8c0,0.7-0.1,1.3-0.2,1.7c-0.1,0.4-0.4,0.8-0.7,1.1c-0.4,0.3-0.8,0.6-1.3,0.8l-0.5-1
					c0.5-0.2,0.9-0.4,1.1-0.7s0.3-0.7,0.3-1.2h-1.2V30z"/>
				<path class="st10" d="M617.5,21.8v-2.4h8.7v1.8c-0.7,0.7-1.4,1.7-2.2,3c-0.7,1.3-1.3,2.7-1.7,4.2c-0.4,1.5-0.6,2.8-0.6,4h-2.4
					c0-1.8,0.4-3.7,1.1-5.6c0.7-1.9,1.7-3.6,2.9-5.1H617.5z"/>
			</g>
		</g>
	</g>
	<g>
		<defs>
			<polygon id="SVGID_00000091003890316848746830000010779534132356571270_" points="-12.6,452.4 792.4,452.4 792.4,-68.8 
				-12.6,-68.8 -12.6,452.4 			"/>
		</defs>
		<clipPath id="SVGID_00000158735577849451580190000001037844270822340483_">
			<use xlink:href="#SVGID_00000091003890316848746830000010779534132356571270_"  style="overflow:visible;"/>
		</clipPath>
		<g style="clip-path:url(#SVGID_00000158735577849451580190000001037844270822340483_);">
			<defs>
				<rect id="SVGID_00000098906788716581299510000006409848796526891139_" x="-12.6" y="-68.8" width="804.9" height="521.2"/>
			</defs>
			<clipPath id="SVGID_00000060752361003448561280000017414044321330647729_">
				<use xlink:href="#SVGID_00000098906788716581299510000006409848796526891139_"  style="overflow:visible;"/>
			</clipPath>
			<g style="clip-path:url(#SVGID_00000060752361003448561280000017414044321330647729_);">
				<path class="st10" d="M701.4,16.7l2.5-0.3c0.1,0.6,0.3,1,0.6,1.4c0.4,0.3,0.8,0.5,1.2,0.5c0.5,0,1-0.2,1.3-0.6
					c0.4-0.4,0.6-1.1,0.6-1.9c0-0.8-0.2-1.4-0.5-1.8c-0.4-0.4-0.8-0.6-1.4-0.6c-0.7,0-1.4,0.3-2,1l-2.1-0.3L703,7h6.7v2.4H705
					l-0.4,2.2c0.6-0.3,1.1-0.4,1.7-0.4c1.1,0,2.1,0.4,2.9,1.2s1.2,1.9,1.2,3.2c0,1.1-0.3,2.1-0.9,2.9c-0.9,1.2-2.1,1.8-3.6,1.8
					c-1.2,0-2.2-0.3-3-1C702,18.7,701.6,17.8,701.4,16.7z"/>
				<path class="st10" d="M711.7,9.4V7h8.7v1.8c-0.7,0.7-1.4,1.7-2.2,3c-0.7,1.3-1.3,2.7-1.7,4.2c-0.4,1.5-0.6,2.8-0.6,4h-2.4
					c0-1.8,0.4-3.7,1.1-5.6c0.7-1.9,1.7-3.6,2.9-5.1H711.7z"/>
				<path class="st10" d="M722.4,17.5h2.5v1.8c0,0.7-0.1,1.3-0.2,1.7c-0.1,0.4-0.4,0.8-0.7,1.1c-0.4,0.3-0.8,0.6-1.3,0.8l-0.5-1
					c0.5-0.2,0.9-0.4,1.1-0.7s0.3-0.7,0.3-1.2h-1.2V17.5z"/>
				<path class="st10" d="M735.6,10.1l-2.5,0.3c-0.1-0.5-0.2-0.9-0.5-1.1c-0.3-0.2-0.6-0.4-1-0.4c-0.5,0-1,0.2-1.4,0.7
					s-0.6,1.5-0.7,3c0.6-0.7,1.4-1.1,2.4-1.1c1.1,0,2,0.4,2.7,1.2c0.8,0.8,1.1,1.8,1.1,3.1c0,1.4-0.4,2.4-1.2,3.3
					c-0.8,0.8-1.8,1.2-3.1,1.2c-1.3,0-2.4-0.5-3.3-1.6c-0.9-1-1.3-2.7-1.3-5.1c0-2.4,0.4-4.2,1.3-5.2c0.9-1.1,2.1-1.6,3.5-1.6
					c1,0,1.8,0.3,2.5,0.8C735,8.2,735.4,9,735.6,10.1z M729.8,15.6c0,0.8,0.2,1.5,0.6,1.9s0.8,0.7,1.3,0.7c0.5,0,0.9-0.2,1.2-0.6
					c0.3-0.4,0.5-1,0.5-1.8c0-0.9-0.2-1.5-0.5-1.9c-0.3-0.4-0.8-0.6-1.3-0.6c-0.5,0-0.9,0.2-1.2,0.6C730,14.3,729.8,14.9,729.8,15.6
					z"/>
			</g>
		</g>
	</g>
	<g>
		<defs>
			<polygon id="SVGID_00000115488573643849683170000002394466519966728840_" points="-12.6,452.4 792.4,452.4 792.4,-68.8 
				-12.6,-68.8 -12.6,452.4 			"/>
		</defs>
		<clipPath id="SVGID_00000049183080758091057420000008935331352764763573_">
			<use xlink:href="#SVGID_00000115488573643849683170000002394466519966728840_"  style="overflow:visible;"/>
		</clipPath>
		<g style="clip-path:url(#SVGID_00000049183080758091057420000008935331352764763573_);">
			<defs>
				<rect id="SVGID_00000049211143498554399860000007743314710558772653_" x="-12.6" y="-68.8" width="804.9" height="521.2"/>
			</defs>
			<clipPath id="SVGID_00000006701250660763679970000005157507252214138784_">
				<use xlink:href="#SVGID_00000049211143498554399860000007743314710558772653_"  style="overflow:visible;"/>
			</clipPath>
			<g style="clip-path:url(#SVGID_00000006701250660763679970000005157507252214138784_);">
				<path class="st25" d="M50.3,434.8v2.4h-8.9c0.1-0.9,0.4-1.7,0.9-2.5c0.5-0.8,1.4-1.9,2.9-3.2c1.1-1.1,1.8-1.8,2.1-2.2
					c0.3-0.5,0.5-1,0.5-1.6c0-0.6-0.2-1-0.5-1.3S46.6,426,46,426c-0.5,0-1,0.2-1.3,0.5c-0.3,0.3-0.5,0.8-0.5,1.6l-2.5-0.3
					c0.2-1.4,0.6-2.4,1.4-3c0.8-0.6,1.8-0.9,3-0.9c1.3,0,2.3,0.4,3.1,1.1s1.1,1.6,1.1,2.6c0,0.6-0.1,1.2-0.3,1.7
					c-0.2,0.5-0.6,1.1-1,1.7c-0.3,0.4-0.9,1-1.7,1.7c-0.8,0.7-1.3,1.2-1.5,1.5c-0.2,0.2-0.4,0.5-0.5,0.7H50.3z"/>
				<path class="st25" d="M56.3,423.9c1.3,0,2.3,0.5,3,1.4c0.9,1.1,1.3,2.9,1.3,5.4c0,2.5-0.4,4.3-1.3,5.4c-0.7,0.9-1.7,1.4-3,1.4
					c-1.3,0-2.3-0.5-3.1-1.5c-0.8-1-1.2-2.8-1.2-5.3c0-2.5,0.4-4.3,1.3-5.4C54,424.4,55,423.9,56.3,423.9z M56.3,426
					c-0.3,0-0.6,0.1-0.8,0.3s-0.4,0.5-0.6,1.1c-0.2,0.7-0.3,1.8-0.3,3.3c0,1.6,0.1,2.6,0.2,3.2c0.2,0.6,0.4,1,0.6,1.2
					c0.2,0.2,0.5,0.3,0.8,0.3c0.3,0,0.6-0.1,0.8-0.3c0.2-0.2,0.4-0.5,0.6-1.1c0.2-0.6,0.3-1.8,0.3-3.3c0-1.6-0.1-2.6-0.2-3.2
					c-0.2-0.6-0.4-1-0.6-1.2C56.9,426.1,56.6,426,56.3,426z"/>
				<path class="st25" d="M68.6,437.2H66v-9.6c-0.9,0.9-2,1.5-3.3,1.9v-2.3c0.7-0.2,1.4-0.6,2.2-1.2c0.8-0.6,1.3-1.3,1.6-2.1h2.1
					V437.2z"/>
				<path class="st25" d="M81,427.2l-2.5,0.3c-0.1-0.5-0.2-0.9-0.5-1.1c-0.3-0.2-0.6-0.4-1-0.4c-0.5,0-1,0.2-1.4,0.7
					c-0.4,0.5-0.6,1.5-0.7,3c0.6-0.7,1.4-1.1,2.4-1.1c1.1,0,2,0.4,2.7,1.2c0.8,0.8,1.1,1.8,1.1,3.1c0,1.4-0.4,2.4-1.2,3.3
					s-1.8,1.2-3.1,1.2c-1.3,0-2.4-0.5-3.3-1.6c-0.9-1-1.3-2.7-1.3-5.1c0-2.4,0.4-4.2,1.3-5.2c0.9-1.1,2.1-1.6,3.5-1.6
					c1,0,1.8,0.3,2.5,0.8C80.4,425.3,80.8,426.1,81,427.2z M75.2,432.7c0,0.8,0.2,1.5,0.6,1.9c0.4,0.4,0.8,0.7,1.3,0.7
					c0.5,0,0.9-0.2,1.2-0.6c0.3-0.4,0.5-1,0.5-1.8c0-0.9-0.2-1.5-0.5-1.9s-0.8-0.6-1.3-0.6c-0.5,0-0.9,0.2-1.2,0.6
					C75.4,431.4,75.2,432,75.2,432.7z"/>
			</g>
		</g>
	</g>
	<g>
		<defs>
			<polygon id="SVGID_00000023968592643061855010000017766494758099577245_" points="-12.6,452.4 792.4,452.4 792.4,-68.8 
				-12.6,-68.8 -12.6,452.4 			"/>
		</defs>
		<clipPath id="SVGID_00000172432867666495502630000013440057398198427012_">
			<use xlink:href="#SVGID_00000023968592643061855010000017766494758099577245_"  style="overflow:visible;"/>
		</clipPath>
		<g style="clip-path:url(#SVGID_00000172432867666495502630000013440057398198427012_);">
			<defs>
				<rect id="SVGID_00000003788003477057074030000015703811370590952086_" x="-12.6" y="-68.8" width="804.9" height="521.2"/>
			</defs>
			<clipPath id="SVGID_00000062174525460569318900000011017745999151505026_">
				<use xlink:href="#SVGID_00000003788003477057074030000015703811370590952086_"  style="overflow:visible;"/>
			</clipPath>
			<g style="clip-path:url(#SVGID_00000062174525460569318900000011017745999151505026_);">
				<path class="st25" d="M159.8,434.8v2.4h-8.9c0.1-0.9,0.4-1.7,0.9-2.5c0.5-0.8,1.4-1.9,2.9-3.2c1.1-1.1,1.8-1.8,2.1-2.2
					c0.3-0.5,0.5-1,0.5-1.6c0-0.6-0.2-1-0.5-1.3s-0.7-0.5-1.3-0.5c-0.5,0-1,0.2-1.3,0.5c-0.3,0.3-0.5,0.8-0.5,1.6l-2.5-0.3
					c0.2-1.4,0.6-2.4,1.4-3c0.8-0.6,1.8-0.9,3-0.9c1.3,0,2.3,0.4,3.1,1.1s1.1,1.6,1.1,2.6c0,0.6-0.1,1.2-0.3,1.7
					c-0.2,0.5-0.6,1.1-1,1.7c-0.3,0.4-0.9,1-1.7,1.7c-0.8,0.7-1.3,1.2-1.5,1.5c-0.2,0.2-0.4,0.5-0.5,0.7H159.8z"/>
				<path class="st25" d="M165.8,423.9c1.3,0,2.3,0.5,3,1.4c0.9,1.1,1.3,2.9,1.3,5.4c0,2.5-0.4,4.3-1.3,5.4c-0.7,0.9-1.7,1.4-3,1.4
					c-1.3,0-2.3-0.5-3.1-1.5c-0.8-1-1.2-2.8-1.2-5.3c0-2.5,0.4-4.3,1.3-5.4C163.5,424.4,164.5,423.9,165.8,423.9z M165.8,426
					c-0.3,0-0.6,0.1-0.8,0.3s-0.4,0.5-0.6,1.1c-0.2,0.7-0.3,1.8-0.3,3.3c0,1.6,0.1,2.6,0.2,3.2c0.2,0.6,0.4,1,0.6,1.2
					c0.2,0.2,0.5,0.3,0.8,0.3c0.3,0,0.6-0.1,0.8-0.3c0.2-0.2,0.4-0.5,0.6-1.1c0.2-0.6,0.3-1.8,0.3-3.3c0-1.6-0.1-2.6-0.2-3.2
					c-0.2-0.6-0.4-1-0.6-1.2C166.4,426.1,166.1,426,165.8,426z"/>
				<path class="st25" d="M178.1,437.2h-2.5v-9.6c-0.9,0.9-2,1.5-3.3,1.9v-2.3c0.7-0.2,1.4-0.6,2.2-1.2c0.8-0.6,1.3-1.3,1.6-2.1h2.1
					V437.2z"/>
				<path class="st25" d="M181.9,426.5v-2.4h8.7v1.8c-0.7,0.7-1.4,1.7-2.2,3c-0.7,1.3-1.3,2.7-1.7,4.2s-0.6,2.8-0.6,4h-2.4
					c0-1.8,0.4-3.7,1.1-5.6c0.7-1.9,1.7-3.6,2.9-5.1H181.9z"/>
			</g>
		</g>
	</g>
	<g>
		<defs>
			<polygon id="SVGID_00000166657850423822411540000005905017918334389388_" points="-12.6,452.4 792.4,452.4 792.4,-68.8 
				-12.6,-68.8 -12.6,452.4 			"/>
		</defs>
		<clipPath id="SVGID_00000098188585889244525870000005286526388280772542_">
			<use xlink:href="#SVGID_00000166657850423822411540000005905017918334389388_"  style="overflow:visible;"/>
		</clipPath>
		<g style="clip-path:url(#SVGID_00000098188585889244525870000005286526388280772542_);">
			<defs>
				<rect id="SVGID_00000150099443675744083840000013713724740264641160_" x="-12.6" y="-68.8" width="804.9" height="521.2"/>
			</defs>
			<clipPath id="SVGID_00000044175379662151985800000013576659891430858687_">
				<use xlink:href="#SVGID_00000150099443675744083840000013713724740264641160_"  style="overflow:visible;"/>
			</clipPath>
			<g style="clip-path:url(#SVGID_00000044175379662151985800000013576659891430858687_);">
				<path class="st25" d="M269.3,434.8v2.4h-8.9c0.1-0.9,0.4-1.7,0.9-2.5c0.5-0.8,1.4-1.9,2.9-3.2c1.1-1.1,1.8-1.8,2.1-2.2
					c0.3-0.5,0.5-1,0.5-1.6c0-0.6-0.2-1-0.5-1.3s-0.7-0.5-1.3-0.5c-0.5,0-1,0.2-1.3,0.5c-0.3,0.3-0.5,0.8-0.5,1.6l-2.5-0.3
					c0.2-1.4,0.6-2.4,1.4-3c0.8-0.6,1.8-0.9,3-0.9c1.3,0,2.3,0.4,3.1,1.1s1.1,1.6,1.1,2.6c0,0.6-0.1,1.2-0.3,1.7
					c-0.2,0.5-0.6,1.1-1,1.7c-0.3,0.4-0.9,1-1.7,1.7c-0.8,0.7-1.3,1.2-1.5,1.5c-0.2,0.2-0.4,0.5-0.5,0.7H269.3z"/>
				<path class="st25" d="M275.3,423.9c1.3,0,2.3,0.5,3,1.4c0.9,1.1,1.3,2.9,1.3,5.4c0,2.5-0.4,4.3-1.3,5.4c-0.7,0.9-1.7,1.4-3,1.4
					c-1.3,0-2.3-0.5-3.1-1.5c-0.8-1-1.2-2.8-1.2-5.3c0-2.5,0.4-4.3,1.3-5.4C273,424.4,274,423.9,275.3,423.9z M275.3,426
					c-0.3,0-0.6,0.1-0.8,0.3s-0.4,0.5-0.6,1.1c-0.2,0.7-0.3,1.8-0.3,3.3c0,1.6,0.1,2.6,0.2,3.2c0.2,0.6,0.4,1,0.6,1.2
					c0.2,0.2,0.5,0.3,0.8,0.3c0.3,0,0.6-0.1,0.8-0.3c0.2-0.2,0.4-0.5,0.6-1.1c0.2-0.6,0.3-1.8,0.3-3.3c0-1.6-0.1-2.6-0.2-3.2
					c-0.2-0.6-0.4-1-0.6-1.2C275.9,426.1,275.6,426,275.3,426z"/>
				<path class="st25" d="M287.6,437.2h-2.5v-9.6c-0.9,0.9-2,1.5-3.3,1.9v-2.3c0.7-0.2,1.4-0.6,2.2-1.2c0.8-0.6,1.3-1.3,1.6-2.1h2.1
					V437.2z"/>
				<path class="st25" d="M293.6,430c-0.7-0.3-1.1-0.7-1.4-1.1s-0.4-1-0.4-1.6c0-1,0.3-1.8,1-2.4s1.7-1,2.9-1c1.3,0,2.2,0.3,2.9,1
					s1,1.5,1,2.4c0,0.6-0.2,1.2-0.5,1.6s-0.8,0.8-1.3,1.1c0.7,0.3,1.3,0.7,1.7,1.3c0.4,0.6,0.6,1.2,0.6,2c0,1.2-0.4,2.2-1.2,3
					c-0.8,0.8-1.8,1.1-3.1,1.1c-1.2,0-2.2-0.3-3-0.9c-0.9-0.7-1.4-1.8-1.4-3.1c0-0.7,0.2-1.4,0.5-2S292.8,430.4,293.6,430z
					 M293.9,433.2c0,0.7,0.2,1.2,0.5,1.6c0.4,0.4,0.8,0.6,1.3,0.6c0.5,0,1-0.2,1.3-0.6c0.3-0.4,0.5-0.9,0.5-1.6
					c0-0.6-0.2-1.1-0.5-1.5c-0.3-0.4-0.8-0.6-1.3-0.6c-0.6,0-1.1,0.2-1.4,0.6C294,432.2,293.9,432.7,293.9,433.2z M294.1,427.5
					c0,0.5,0.1,0.9,0.4,1.2c0.3,0.3,0.7,0.4,1.1,0.4c0.5,0,0.9-0.1,1.2-0.4c0.3-0.3,0.4-0.7,0.4-1.2c0-0.5-0.1-0.9-0.4-1.1
					c-0.3-0.3-0.7-0.4-1.1-0.4c-0.5,0-0.9,0.1-1.2,0.4C294.3,426.6,294.1,427,294.1,427.5z"/>
			</g>
		</g>
	</g>
	<g>
		<defs>
			<polygon id="SVGID_00000129900359681071281510000013077491005559163018_" points="-12.6,452.4 792.4,452.4 792.4,-68.8 
				-12.6,-68.8 -12.6,452.4 			"/>
		</defs>
		<clipPath id="SVGID_00000145031699293918020820000001422665025300880280_">
			<use xlink:href="#SVGID_00000129900359681071281510000013077491005559163018_"  style="overflow:visible;"/>
		</clipPath>
		<g style="clip-path:url(#SVGID_00000145031699293918020820000001422665025300880280_);">
			<defs>
				<rect id="SVGID_00000080183533480149847130000014706780008272903317_" x="-12.6" y="-68.8" width="804.9" height="521.2"/>
			</defs>
			<clipPath id="SVGID_00000155859177094567119140000003920764680008971181_">
				<use xlink:href="#SVGID_00000080183533480149847130000014706780008272903317_"  style="overflow:visible;"/>
			</clipPath>
			<g style="clip-path:url(#SVGID_00000155859177094567119140000003920764680008971181_);">
				<path class="st25" d="M378.9,434.8v2.4H370c0.1-0.9,0.4-1.7,0.9-2.5c0.5-0.8,1.4-1.9,2.9-3.2c1.1-1.1,1.8-1.8,2.1-2.2
					c0.3-0.5,0.5-1,0.5-1.6c0-0.6-0.2-1-0.5-1.3s-0.7-0.5-1.3-0.5c-0.5,0-1,0.2-1.3,0.5c-0.3,0.3-0.5,0.8-0.5,1.6l-2.5-0.3
					c0.2-1.4,0.6-2.4,1.4-3c0.8-0.6,1.8-0.9,3-0.9c1.3,0,2.3,0.4,3.1,1.1s1.1,1.6,1.1,2.6c0,0.6-0.1,1.2-0.3,1.7
					c-0.2,0.5-0.6,1.1-1,1.7c-0.3,0.4-0.9,1-1.7,1.7c-0.8,0.7-1.3,1.2-1.5,1.5c-0.2,0.2-0.4,0.5-0.5,0.7H378.9z"/>
				<path class="st25" d="M384.9,423.9c1.3,0,2.3,0.5,3,1.4c0.9,1.1,1.3,2.9,1.3,5.4c0,2.5-0.4,4.3-1.3,5.4c-0.7,0.9-1.7,1.4-3,1.4
					c-1.3,0-2.3-0.5-3.1-1.5c-0.8-1-1.2-2.8-1.2-5.3c0-2.5,0.4-4.3,1.3-5.4C382.6,424.4,383.6,423.9,384.9,423.9z M384.9,426
					c-0.3,0-0.6,0.1-0.8,0.3s-0.4,0.5-0.6,1.1c-0.2,0.7-0.3,1.8-0.3,3.3c0,1.6,0.1,2.6,0.2,3.2c0.2,0.6,0.4,1,0.6,1.2
					c0.2,0.2,0.5,0.3,0.8,0.3c0.3,0,0.6-0.1,0.8-0.3c0.2-0.2,0.4-0.5,0.6-1.1c0.2-0.6,0.3-1.8,0.3-3.3c0-1.6-0.1-2.6-0.2-3.2
					c-0.2-0.6-0.4-1-0.6-1.2C385.4,426.1,385.2,426,384.9,426z"/>
				<path class="st25" d="M397.2,437.2h-2.5v-9.6c-0.9,0.9-2,1.5-3.3,1.9v-2.3c0.7-0.2,1.4-0.6,2.2-1.2c0.8-0.6,1.3-1.3,1.6-2.1h2.1
					V437.2z"/>
				<path class="st25" d="M401,434.1l2.5-0.3c0.1,0.5,0.2,0.9,0.5,1.1c0.3,0.2,0.6,0.4,1,0.4c0.5,0,1-0.2,1.3-0.7s0.6-1.5,0.7-3
					c-0.6,0.7-1.4,1.1-2.4,1.1c-1,0-1.9-0.4-2.7-1.2c-0.8-0.8-1.1-1.8-1.1-3.1c0-1.3,0.4-2.4,1.2-3.2c0.8-0.8,1.8-1.2,3-1.2
					c1.3,0,2.4,0.5,3.3,1.6c0.9,1,1.3,2.7,1.3,5.1c0,2.4-0.4,4.2-1.3,5.2s-2.1,1.6-3.5,1.6c-1,0-1.9-0.3-2.5-0.8
					C401.6,436,401.2,435.2,401,434.1z M406.7,428.6c0-0.8-0.2-1.5-0.6-1.9s-0.8-0.7-1.3-0.7c-0.5,0-0.9,0.2-1.2,0.6
					c-0.3,0.4-0.5,1-0.5,1.8c0,0.9,0.2,1.5,0.5,1.9c0.3,0.4,0.8,0.6,1.3,0.6c0.5,0,0.9-0.2,1.2-0.6
					C406.6,429.9,406.7,429.3,406.7,428.6z"/>
			</g>
		</g>
	</g>
	<g>
		<defs>
			<polygon id="SVGID_00000104665871949786328710000008717875005608830628_" points="-12.6,452.4 792.4,452.4 792.4,-68.8 
				-12.6,-68.8 -12.6,452.4 			"/>
		</defs>
		<clipPath id="SVGID_00000152226702006276920850000003890832115027417228_">
			<use xlink:href="#SVGID_00000104665871949786328710000008717875005608830628_"  style="overflow:visible;"/>
		</clipPath>
		<g style="clip-path:url(#SVGID_00000152226702006276920850000003890832115027417228_);">
			<defs>
				<rect id="SVGID_00000141427879586597810400000014322786776928397719_" x="-12.6" y="-68.8" width="804.9" height="521.2"/>
			</defs>
			<clipPath id="SVGID_00000083074823119868722460000001032364653887666059_">
				<use xlink:href="#SVGID_00000141427879586597810400000014322786776928397719_"  style="overflow:visible;"/>
			</clipPath>
			<g style="clip-path:url(#SVGID_00000083074823119868722460000001032364653887666059_);">
				<path class="st25" d="M488.4,434.8v2.4h-8.9c0.1-0.9,0.4-1.7,0.9-2.5c0.5-0.8,1.4-1.9,2.9-3.2c1.1-1.1,1.8-1.8,2.1-2.2
					c0.3-0.5,0.5-1,0.5-1.6c0-0.6-0.2-1-0.5-1.3s-0.7-0.5-1.3-0.5c-0.5,0-1,0.2-1.3,0.5c-0.3,0.3-0.5,0.8-0.5,1.6l-2.5-0.3
					c0.2-1.4,0.6-2.4,1.4-3c0.8-0.6,1.8-0.9,3-0.9c1.3,0,2.3,0.4,3.1,1.1s1.1,1.6,1.1,2.6c0,0.6-0.1,1.2-0.3,1.7
					c-0.2,0.5-0.6,1.1-1,1.7c-0.3,0.4-0.9,1-1.7,1.7c-0.8,0.7-1.3,1.2-1.5,1.5c-0.2,0.2-0.4,0.5-0.5,0.7H488.4z"/>
				<path class="st25" d="M494.4,423.9c1.3,0,2.3,0.5,3,1.4c0.9,1.1,1.3,2.9,1.3,5.4c0,2.5-0.4,4.3-1.3,5.4c-0.7,0.9-1.7,1.4-3,1.4
					c-1.3,0-2.3-0.5-3.1-1.5c-0.8-1-1.2-2.8-1.2-5.3c0-2.5,0.4-4.3,1.3-5.4C492.1,424.4,493.1,423.9,494.4,423.9z M494.4,426
					c-0.3,0-0.6,0.1-0.8,0.3c-0.2,0.2-0.4,0.5-0.6,1.1c-0.2,0.7-0.3,1.8-0.3,3.3c0,1.6,0.1,2.6,0.2,3.2c0.2,0.6,0.4,1,0.6,1.2
					c0.2,0.2,0.5,0.3,0.8,0.3c0.3,0,0.6-0.1,0.8-0.3c0.2-0.2,0.4-0.5,0.6-1.1c0.2-0.6,0.3-1.8,0.3-3.3c0-1.6-0.1-2.6-0.2-3.2
					c-0.2-0.6-0.4-1-0.6-1.2C495,426.1,494.7,426,494.4,426z"/>
				<path class="st25" d="M508.8,434.8v2.4h-8.9c0.1-0.9,0.4-1.7,0.9-2.5c0.5-0.8,1.4-1.9,2.9-3.2c1.1-1.1,1.8-1.8,2.1-2.2
					c0.3-0.5,0.5-1,0.5-1.6c0-0.6-0.2-1-0.5-1.3s-0.7-0.5-1.3-0.5c-0.5,0-1,0.2-1.3,0.5c-0.3,0.3-0.5,0.8-0.5,1.6l-2.5-0.3
					c0.2-1.4,0.6-2.4,1.4-3c0.8-0.6,1.8-0.9,3-0.9c1.3,0,2.3,0.4,3.1,1.1s1.1,1.6,1.1,2.6c0,0.6-0.1,1.2-0.3,1.7
					c-0.2,0.5-0.6,1.1-1,1.7c-0.3,0.4-0.9,1-1.7,1.7c-0.8,0.7-1.3,1.2-1.5,1.5c-0.2,0.2-0.4,0.5-0.5,0.7H508.8z"/>
				<path class="st25" d="M514.8,423.9c1.3,0,2.3,0.5,3,1.4c0.9,1.1,1.3,2.9,1.3,5.4c0,2.5-0.4,4.3-1.3,5.4c-0.7,0.9-1.7,1.4-3,1.4
					c-1.3,0-2.3-0.5-3.1-1.5c-0.8-1-1.2-2.8-1.2-5.3c0-2.5,0.4-4.3,1.3-5.4C512.5,424.4,513.5,423.9,514.8,423.9z M514.8,426
					c-0.3,0-0.6,0.1-0.8,0.3c-0.2,0.2-0.4,0.5-0.6,1.1c-0.2,0.7-0.3,1.8-0.3,3.3c0,1.6,0.1,2.6,0.2,3.2c0.2,0.6,0.4,1,0.6,1.2
					c0.2,0.2,0.5,0.3,0.8,0.3c0.3,0,0.6-0.1,0.8-0.3c0.2-0.2,0.4-0.5,0.6-1.1c0.2-0.6,0.3-1.8,0.3-3.3c0-1.6-0.1-2.6-0.2-3.2
					c-0.2-0.6-0.4-1-0.6-1.2C515.3,426.1,515.1,426,514.8,426z"/>
			</g>
		</g>
	</g>
	<g>
		<defs>
			<polygon id="SVGID_00000172438921398845670890000011893633760119324862_" points="-12.6,452.4 792.4,452.4 792.4,-68.8 
				-12.6,-68.8 -12.6,452.4 			"/>
		</defs>
		<clipPath id="SVGID_00000039113022081437461770000001664457766141946042_">
			<use xlink:href="#SVGID_00000172438921398845670890000011893633760119324862_"  style="overflow:visible;"/>
		</clipPath>
		<g style="clip-path:url(#SVGID_00000039113022081437461770000001664457766141946042_);">
			<defs>
				<rect id="SVGID_00000013187370065132299020000010287897565094695324_" x="-12.6" y="-68.8" width="804.9" height="521.2"/>
			</defs>
			<clipPath id="SVGID_00000108276989329996202080000002383568087408870790_">
				<use xlink:href="#SVGID_00000013187370065132299020000010287897565094695324_"  style="overflow:visible;"/>
			</clipPath>
			<g style="clip-path:url(#SVGID_00000108276989329996202080000002383568087408870790_);">
				<path class="st25" d="M597.9,434.8v2.4H589c0.1-0.9,0.4-1.7,0.9-2.5c0.5-0.8,1.4-1.9,2.9-3.2c1.1-1.1,1.8-1.8,2.1-2.2
					c0.3-0.5,0.5-1,0.5-1.6c0-0.6-0.2-1-0.5-1.3s-0.7-0.5-1.3-0.5c-0.5,0-1,0.2-1.3,0.5c-0.3,0.3-0.5,0.8-0.5,1.6l-2.5-0.3
					c0.2-1.4,0.6-2.4,1.4-3c0.8-0.6,1.8-0.9,3-0.9c1.3,0,2.3,0.4,3.1,1.1s1.1,1.6,1.1,2.6c0,0.6-0.1,1.2-0.3,1.7
					c-0.2,0.5-0.6,1.1-1,1.7c-0.3,0.4-0.9,1-1.7,1.7c-0.8,0.7-1.3,1.2-1.5,1.5c-0.2,0.2-0.4,0.5-0.5,0.7H597.9z"/>
				<path class="st25" d="M603.9,423.9c1.3,0,2.3,0.5,3,1.4c0.9,1.1,1.3,2.9,1.3,5.4c0,2.5-0.4,4.3-1.3,5.4c-0.7,0.9-1.7,1.4-3,1.4
					c-1.3,0-2.3-0.5-3.1-1.5c-0.8-1-1.2-2.8-1.2-5.3c0-2.5,0.4-4.3,1.3-5.4C601.6,424.4,602.6,423.9,603.9,423.9z M603.9,426
					c-0.3,0-0.6,0.1-0.8,0.3c-0.2,0.2-0.4,0.5-0.6,1.1c-0.2,0.7-0.3,1.8-0.3,3.3c0,1.6,0.1,2.6,0.2,3.2c0.2,0.6,0.4,1,0.6,1.2
					c0.2,0.2,0.5,0.3,0.8,0.3c0.3,0,0.6-0.1,0.8-0.3c0.2-0.2,0.4-0.5,0.6-1.1c0.2-0.6,0.3-1.8,0.3-3.3c0-1.6-0.1-2.6-0.2-3.2
					c-0.2-0.6-0.4-1-0.6-1.2C604.5,426.1,604.2,426,603.9,426z"/>
				<path class="st25" d="M618.3,434.8v2.4h-8.9c0.1-0.9,0.4-1.7,0.9-2.5c0.5-0.8,1.4-1.9,2.9-3.2c1.1-1.1,1.8-1.8,2.1-2.2
					c0.3-0.5,0.5-1,0.5-1.6c0-0.6-0.2-1-0.5-1.3s-0.7-0.5-1.3-0.5c-0.5,0-1,0.2-1.3,0.5c-0.3,0.3-0.5,0.8-0.5,1.6l-2.5-0.3
					c0.2-1.4,0.6-2.4,1.4-3c0.8-0.6,1.8-0.9,3-0.9c1.3,0,2.3,0.4,3.1,1.1s1.1,1.6,1.1,2.6c0,0.6-0.1,1.2-0.3,1.7
					c-0.2,0.5-0.6,1.1-1,1.7c-0.3,0.4-0.9,1-1.7,1.7c-0.8,0.7-1.3,1.2-1.5,1.5c-0.2,0.2-0.4,0.5-0.5,0.7H618.3z"/>
				<path class="st25" d="M626.5,437.2H624v-9.6c-0.9,0.9-2,1.5-3.3,1.9v-2.3c0.7-0.2,1.4-0.6,2.2-1.2c0.8-0.6,1.3-1.3,1.6-2.1h2.1
					V437.2z"/>
			</g>
		</g>
	</g>
	<g>
		<defs>
			<polygon id="SVGID_00000145032232022740500310000011687417669748086702_" points="-12.6,452.4 792.4,452.4 792.4,-68.8 
				-12.6,-68.8 -12.6,452.4 			"/>
		</defs>
		<clipPath id="SVGID_00000041986490718446264420000017605832512496235443_">
			<use xlink:href="#SVGID_00000145032232022740500310000011687417669748086702_"  style="overflow:visible;"/>
		</clipPath>
		<g style="clip-path:url(#SVGID_00000041986490718446264420000017605832512496235443_);">
			<defs>
				<rect id="SVGID_00000081649873347922093400000004926939409008711839_" x="-12.6" y="-68.8" width="804.9" height="521.2"/>
			</defs>
			<clipPath id="SVGID_00000119076409701239581410000006893247634643479728_">
				<use xlink:href="#SVGID_00000081649873347922093400000004926939409008711839_"  style="overflow:visible;"/>
			</clipPath>
			<g style="clip-path:url(#SVGID_00000119076409701239581410000006893247634643479728_);">
				<path class="st25" d="M707.4,434.8v2.4h-8.9c0.1-0.9,0.4-1.7,0.9-2.5c0.5-0.8,1.4-1.9,2.9-3.2c1.1-1.1,1.8-1.8,2.1-2.2
					c0.3-0.5,0.5-1,0.5-1.6c0-0.6-0.2-1-0.5-1.3s-0.7-0.5-1.3-0.5c-0.5,0-1,0.2-1.3,0.5c-0.3,0.3-0.5,0.8-0.5,1.6l-2.5-0.3
					c0.2-1.4,0.6-2.4,1.4-3c0.8-0.6,1.8-0.9,3-0.9c1.3,0,2.3,0.4,3.1,1.1s1.1,1.6,1.1,2.6c0,0.6-0.1,1.2-0.3,1.7
					c-0.2,0.5-0.6,1.1-1,1.7c-0.3,0.4-0.9,1-1.7,1.7c-0.8,0.7-1.3,1.2-1.5,1.5c-0.2,0.2-0.4,0.5-0.5,0.7H707.4z"/>
				<path class="st25" d="M713.4,423.9c1.3,0,2.3,0.5,3,1.4c0.9,1.1,1.3,2.9,1.3,5.4c0,2.5-0.4,4.3-1.3,5.4c-0.7,0.9-1.7,1.4-3,1.4
					c-1.3,0-2.3-0.5-3.1-1.5c-0.8-1-1.2-2.8-1.2-5.3c0-2.5,0.4-4.3,1.3-5.4C711.2,424.4,712.2,423.9,713.4,423.9z M713.4,426
					c-0.3,0-0.6,0.1-0.8,0.3c-0.2,0.2-0.4,0.5-0.6,1.1c-0.2,0.7-0.3,1.8-0.3,3.3c0,1.6,0.1,2.6,0.2,3.2c0.2,0.6,0.4,1,0.6,1.2
					c0.2,0.2,0.5,0.3,0.8,0.3c0.3,0,0.6-0.1,0.8-0.3c0.2-0.2,0.4-0.5,0.6-1.1c0.2-0.6,0.3-1.8,0.3-3.3c0-1.6-0.1-2.6-0.2-3.2
					c-0.2-0.6-0.4-1-0.6-1.2C714,426.1,713.7,426,713.4,426z"/>
				<path class="st25" d="M727.8,434.8v2.4h-8.9c0.1-0.9,0.4-1.7,0.9-2.5c0.5-0.8,1.4-1.9,2.9-3.2c1.1-1.1,1.8-1.8,2.1-2.2
					c0.3-0.5,0.5-1,0.5-1.6c0-0.6-0.2-1-0.5-1.3s-0.7-0.5-1.3-0.5c-0.5,0-1,0.2-1.3,0.5c-0.3,0.3-0.5,0.8-0.5,1.6l-2.5-0.3
					c0.2-1.4,0.6-2.4,1.4-3c0.8-0.6,1.8-0.9,3-0.9c1.3,0,2.3,0.4,3.1,1.1s1.1,1.6,1.1,2.6c0,0.6-0.1,1.2-0.3,1.7
					c-0.2,0.5-0.6,1.1-1,1.7c-0.3,0.4-0.9,1-1.7,1.7c-0.8,0.7-1.3,1.2-1.5,1.5c-0.2,0.2-0.4,0.5-0.5,0.7H727.8z"/>
				<path class="st25" d="M738.1,434.8v2.4h-8.9c0.1-0.9,0.4-1.7,0.9-2.5c0.5-0.8,1.4-1.9,2.9-3.2c1.1-1.1,1.8-1.8,2.1-2.2
					c0.3-0.5,0.5-1,0.5-1.6c0-0.6-0.2-1-0.5-1.3s-0.7-0.5-1.3-0.5c-0.5,0-1,0.2-1.3,0.5c-0.3,0.3-0.5,0.8-0.5,1.6l-2.5-0.3
					c0.2-1.4,0.6-2.4,1.4-3c0.8-0.6,1.8-0.9,3-0.9c1.3,0,2.3,0.4,3.1,1.1s1.1,1.6,1.1,2.6c0,0.6-0.1,1.2-0.3,1.7
					c-0.2,0.5-0.6,1.1-1,1.7c-0.3,0.4-0.9,1-1.7,1.7c-0.8,0.7-1.3,1.2-1.5,1.5c-0.2,0.2-0.4,0.5-0.5,0.7H738.1z"/>
			</g>
		</g>
	</g>
</g>
</svg>
